# xmcd CD database file
#
# Track frame offsets:
#	150
#	20070
#	41975
#	71202
#
# Disc length: 1215 seconds
#
# Revision: 0
# Processed by: cddbd v1.5PL3 Copyright (c) Steve Scherf et al.
# Submitted via: CDex 1.51
#
DISCID=3a04bd04
DTITLE=久保田利伸 - Soul Bngin'
DYEAR=1999
DGENRE=Pop/Funk
TTITLE0=Soul Bangin'
TTITLE1=Soul Bangin'[DJ Hasebe Remix]
TTITLE2=The Sound Of Carnival[Soul Bossa Trio Remix '99]
TTITLE3=Soul Bangin'[Originl Karaoke]
EXTD=YEAR: 1999
EXTT0=
EXTT1=
EXTT2=
EXTT3=
PLAYORDER=
